<svg id="visual" viewBox="0 0 900 450" width="900" height="450" xmlns="http://www.w3.org/2000/svg" xmlns:xlink="http://www.w3.org/1999/xlink" version="1.1"><rect x="0" y="0" width="900" height="450" fill="#5a0707"></rect><path d="M0 122L21.5 125.7C43 129.3 86 136.7 128.8 140.2C171.7 143.7 214.3 143.3 257.2 144C300 144.7 343 146.3 385.8 141.8C428.7 137.3 471.3 126.7 514.2 119.3C557 112 600 108 642.8 110.3C685.7 112.7 728.3 121.3 771.2 129.5C814 137.7 857 145.3 878.5 149.2L900 153L900 0L878.5 0C857 0 814 0 771.2 0C728.3 0 685.7 0 642.8 0C600 0 557 0 514.2 0C471.3 0 428.7 0 385.8 0C343 0 300 0 257.2 0C214.3 0 171.7 0 128.8 0C86 0 43 0 21.5 0L0 0Z" fill="#c79242"></path><path d="M0 104L21.5 108.2C43 112.3 86 120.7 128.8 117C171.7 113.3 214.3 97.7 257.2 94.2C300 90.7 343 99.3 385.8 99.2C428.7 99 471.3 90 514.2 89C557 88 600 95 642.8 94.8C685.7 94.7 728.3 87.3 771.2 91C814 94.7 857 109.3 878.5 116.7L900 124L900 0L878.5 0C857 0 814 0 771.2 0C728.3 0 685.7 0 642.8 0C600 0 557 0 514.2 0C471.3 0 428.7 0 385.8 0C343 0 300 0 257.2 0C214.3 0 171.7 0 128.8 0C86 0 43 0 21.5 0L0 0Z" fill="#c88637"></path><path d="M0 108L21.5 101.8C43 95.7 86 83.3 128.8 82.7C171.7 82 214.3 93 257.2 98C300 103 343 102 385.8 101.8C428.7 101.7 471.3 102.3 514.2 99.8C557 97.3 600 91.7 642.8 90C685.7 88.3 728.3 90.7 771.2 88.8C814 87 857 81 878.5 78L900 75L900 0L878.5 0C857 0 814 0 771.2 0C728.3 0 685.7 0 642.8 0C600 0 557 0 514.2 0C471.3 0 428.7 0 385.8 0C343 0 300 0 257.2 0C214.3 0 171.7 0 128.8 0C86 0 43 0 21.5 0L0 0Z" fill="#c8792e"></path><path d="M0 98L21.5 92.2C43 86.3 86 74.7 128.8 70.5C171.7 66.3 214.3 69.7 257.2 71.2C300 72.7 343 72.3 385.8 70.8C428.7 69.3 471.3 66.7 514.2 69.8C557 73 600 82 642.8 82.2C685.7 82.3 728.3 73.7 771.2 75.2C814 76.7 857 88.3 878.5 94.2L900 100L900 0L878.5 0C857 0 814 0 771.2 0C728.3 0 685.7 0 642.8 0C600 0 557 0 514.2 0C471.3 0 428.7 0 385.8 0C343 0 300 0 257.2 0C214.3 0 171.7 0 128.8 0C86 0 43 0 21.5 0L0 0Z" fill="#c96c28"></path><path d="M0 52L21.5 52.2C43 52.3 86 52.7 128.8 51.5C171.7 50.3 214.3 47.7 257.2 51.2C300 54.7 343 64.3 385.8 67.3C428.7 70.3 471.3 66.7 514.2 68.3C557 70 600 77 642.8 79C685.7 81 728.3 78 771.2 76C814 74 857 73 878.5 72.5L900 72L900 0L878.5 0C857 0 814 0 771.2 0C728.3 0 685.7 0 642.8 0C600 0 557 0 514.2 0C471.3 0 428.7 0 385.8 0C343 0 300 0 257.2 0C214.3 0 171.7 0 128.8 0C86 0 43 0 21.5 0L0 0Z" fill="#c95e23"></path><path d="M0 56L21.5 52.8C43 49.7 86 43.3 128.8 40C171.7 36.7 214.3 36.3 257.2 38.7C300 41 343 46 385.8 47.8C428.7 49.7 471.3 48.3 514.2 50C557 51.7 600 56.3 642.8 56.8C685.7 57.3 728.3 53.7 771.2 53.3C814 53 857 56 878.5 57.5L900 59L900 0L878.5 0C857 0 814 0 771.2 0C728.3 0 685.7 0 642.8 0C600 0 557 0 514.2 0C471.3 0 428.7 0 385.8 0C343 0 300 0 257.2 0C214.3 0 171.7 0 128.8 0C86 0 43 0 21.5 0L0 0Z" fill="#c94e21"></path><path d="M0 42L21.5 40.3C43 38.7 86 35.3 128.8 36.3C171.7 37.3 214.3 42.7 257.2 41.7C300 40.7 343 33.3 385.8 31.3C428.7 29.3 471.3 32.7 514.2 32.5C557 32.3 600 28.7 642.8 30.2C685.7 31.7 728.3 38.3 771.2 38.2C814 38 857 31 878.5 27.5L900 24L900 0L878.5 0C857 0 814 0 771.2 0C728.3 0 685.7 0 642.8 0C600 0 557 0 514.2 0C471.3 0 428.7 0 385.8 0C343 0 300 0 257.2 0C214.3 0 171.7 0 128.8 0C86 0 43 0 21.5 0L0 0Z" fill="#c83c22"></path><path d="M0 8L21.5 10.5C43 13 86 18 128.8 19.2C171.7 20.3 214.3 17.7 257.2 18.5C300 19.3 343 23.7 385.8 24.8C428.7 26 471.3 24 514.2 23.7C557 23.3 600 24.7 642.8 22.2C685.7 19.7 728.3 13.3 771.2 11.2C814 9 857 11 878.5 12L900 13L900 0L878.5 0C857 0 814 0 771.2 0C728.3 0 685.7 0 642.8 0C600 0 557 0 514.2 0C471.3 0 428.7 0 385.8 0C343 0 300 0 257.2 0C214.3 0 171.7 0 128.8 0C86 0 43 0 21.5 0L0 0Z" fill="#c72424"></path></svg>